Simulation
nRows=34
nColumns=15
endheader
time  TH_x TH_y TH_z SC_y  SC_z  SC_x  AC_y  AC_z  AC_x  GH_y  GH_z  GH_yy  EL_x  PS_y
0.0  0.000000  0.000000  0.000000  -13.920801030797335  -6.773619867082647  1.4663714474358158  54.24026696733859  2.7887642181541077  -19.635244038281524  30.632652521467183  19.533409521689006  -15.505912928308634  23.653341031040917  120.000000
0.026999999999999993  0.000000  0.000000  0.000000  -14.108781422025615  -6.575115877634839  0.8252127744309818  54.04137084175485  3.4383345999194375  -19.03304834494998  26.2833835993482  19.344875233889812  -11.456308191043487  23.296543526018414  120.000000
0.053999999999999986  0.000000  0.000000  0.000000  -14.286032146650356  -6.430170388604936  0.03484488751424163  53.89414574047068  3.9855300036537527  -18.263787548375397  22.714183362587015  19.371101996192515  -8.127230283472652  23.03891656233262  120.000000
0.08099999999999997  0.000000  0.000000  0.000000  -14.43374042131118  -6.357869723508115  -0.8564149151811667  53.77530105569998  4.461039134911128  -17.415891819934217  20.00679226154334  19.55646774520049  -5.613109825122419  22.854393785448508  120.000000
0.10799999999999997  0.000000  0.000000  0.000000  -14.534750742247939  -6.348609171610664  -1.8457082107843235  53.681724681215314  4.915612480149651  -16.56226476952318  18.129129900115377  19.871122023694546  -3.897924321233575  22.723520230555113  120.000000
0.13499999999999995  0.000000  0.000000  0.000000  -14.593600645198821  -6.389820292056113  -2.9172896611082946  53.58154163145871  5.391630709425289  -15.745152950764302  16.888483824132557  20.28767583010248  -2.815263959596995  22.620239361735546  120.000000
0.16199999999999995  0.000000  0.000000  0.000000  -14.613597080300062  -6.467179629074032  -4.038864157220707  53.438998675040054  5.901677041446802  -14.988480261547817  16.023562987392097  20.795037981248083  -2.1307617424877745  22.521428699333597  120.000000
0.18899999999999995  0.000000  0.000000  0.000000  -14.59535201667203  -6.565665962930772  -5.168016900278388  53.24143201465051  6.434917037543836  -14.298399307531337  15.304938822557272  21.389839850290887  -1.6386094536073308  22.410569874847553  120.000000
0.21599999999999994  0.000000  0.000000  0.000000  -14.537568417899434  -6.671377733660565  -6.278882744024139  52.99673177728579  6.973984223886139  -13.664781185973396  14.57208705214131  22.08367866747655  -1.196627908926714  22.282378383629496  120.000000
0.24299999999999994  0.000000  0.000000  0.000000  -14.4404402742239  -6.770744039948739  -7.3532267492429275  52.72035968215086  7.50272146437788  -13.07051762812705  13.730871116952642  22.88351239543346  -0.7221348100138246  22.138184741052132  120.000000
0.2699999999999999  0.000000  0.000000  0.000000  -14.307671479464465  -6.852099004258607  -8.37982687842156  52.43034233154847  8.00861706784065  -12.501144315521984  12.742872739806275  23.796682294891234  -0.18500950197298313  21.982495766765084  120.000000
0.29699999999999993  0.000000  0.000000  0.000000  -14.148992286583416  -6.904395979057133  -9.351249725891723  52.14149947090125  8.487022597865732  -11.943811497814565  11.608755688479409  24.823834700738416  0.41138158776902933  21.821499631244798  120.000000
0.3239999999999999  0.000000  0.000000  0.000000  -13.972508918947813  -6.916370605535318  -10.260584619368696  51.865871663219  8.937389082463474  -11.392812867732212  10.357141130609005  25.962630171152774  1.0357428062076848  21.66105579963942  120.000000
0.3509999999999999  0.000000  0.000000  0.000000  -13.791107577479265  -6.8773437918861475  -11.100179543256914  51.61224479372023  9.364694112108765  -10.845637267666042  9.029329835561517  27.204132673284136  1.648807134694456  21.506672675712323  120.000000
0.3779999999999999  0.000000  0.000000  0.000000  -13.6135123097275  -6.776859032222778  -11.861286409769702  51.38732540472005  9.774969036660348  -10.3057463511989  7.670501754177545  28.53779198465342  2.205363683013479  21.36276178144639  120.000000
0.4049999999999999  0.000000  0.000000  0.000000  -13.450615675949187  -6.605615035703327  -12.532450399519362  51.196434930240216  10.175272391940542  -9.778185947276867  6.320361485509466  29.947584096530168  2.669519216357632  21.232134639935616  120.000000
0.4319999999999999  0.000000  0.000000  0.000000  -13.309386567391183  -6.356629083142079  -13.101879586964781  51.0442687251294  10.570617220214938  -9.271408978348111  5.009598747175977  31.418655031936474  3.012173409143988  21.11605830443743  120.000000
0.45899999999999985  0.000000  0.000000  0.000000  -13.197243817942542  -6.025604533316559  -13.556836284773146  50.934694793919334  10.964361781528464  -8.79298154712237  3.756699280245794  32.932997432631346  3.219313539048289  21.013533749790252  120.000000
0.4859999999999999  0.000000  0.000000  0.000000  -13.119211899858858  -5.611126862271209  -13.886114740189367  50.87145723431609  11.35708245237653  -8.350546093056202  2.570695292251081  34.47567532082218  3.2850490610923933  20.922002071048432  120.000000
0.5129999999999999  0.000000  0.000000  0.000000  -13.080902578396493  -5.115219900997708  -14.080653073158105  50.85695758587026  11.746640123829986  -7.949766593261752  1.451470700233448  36.03127831390687  3.2140750455270513  20.83758910665649  120.000000
0.5399999999999998  0.000000  0.000000  0.000000  -13.087458837646308  -4.542188653490176  -14.133283107565612  50.89261230308136  12.128385647765839  -7.594408744605732  0.3940128835857918  37.58622793838747  3.0152731317370782  20.755855572212948  120.000000
0.5669999999999998  0.000000  0.000000  0.000000  -13.145598404274168  -3.898851609834626  -14.04147002554215  50.97870991860011  12.49627245758789  -7.285999103364575  -0.608804505205849  39.12887664345422  2.6991200606666315  20.672755173268527  120.000000
0.5939999999999999  0.000000  0.000000  0.000000  -13.261524250236114  -3.1919721076202276  -13.802727075419494  51.11476492134816  12.843390882752667  -7.023457435196285  -1.5643533028138161  40.648366995881155  2.2759337911498068  20.585092336435515  120.000000
0.6209999999999999  0.000000  0.000000  0.000000  -13.442769924180219  -2.4291251753396943  -13.419469456148088  51.300381957481186  13.163733567166679  -6.804077812595919  -2.4777895969773946  42.13683554057252  1.7522617662671096  20.49090825991779  120.000000
0.6479999999999998  0.000000  0.000000  0.000000  -13.69578463259416  -1.6163918420469836  -12.892807910413008  51.53524687916612  13.45295511866547  -6.622145670173336  -3.35337657016736  43.586512059955055  1.1349308005388217  20.3898038353684  120.000000
0.6749999999999998  0.000000  0.000000  0.000000  -14.027356874049358  -0.759282440180345  -12.228845599764195  51.82016620543178  13.70939746126987  -6.470477275073134  -4.193175925728442  44.99130059331507  0.42843072139009636  20.28242765940288  120.000000
0.7019999999999998  0.000000  0.000000  0.000000  -14.443438095407378  0.13683606455605846  -11.433004350810565  52.15603003477352  13.93395563107421  -6.3383671263483725  -5.000499850825322  46.34322426226764  -0.3571984602313416  20.170896062879883  120.000000
0.7289999999999998  0.000000  0.000000  0.000000  -14.950428672015706  1.0656332662521875  -10.515394105789367  52.54470581633403  14.129451076031462  -6.214614046385371  -5.77879807593367  47.63401020210583  -1.2094858031444413  20.058086159439405  120.000000
0.7559999999999998  0.000000  0.000000  0.000000  -15.552578598275595  2.0211302613651894  -9.484029379025584  52.98810187005982  14.29982689164646  -6.085780280531302  -6.533415144706563  48.852828213607765  -2.1076998514997416  19.948549930879814  120.000000
0.7829999999999998  0.000000  0.000000  0.000000  -16.253519531118183  2.996955836799364  -8.349405986871949  53.4886344227091  14.450066091482395  -5.939829355223685  -7.2693920360101565  49.989661376047934  -3.0287054412371908  19.847626549752007  120.000000
0.8099999999999998  0.000000  0.000000  0.000000  -17.052941509652655  3.9860849559004268  -7.119646688388938  54.04748151120129  14.58563459560128  -5.764990915359107  -7.992641858781784  51.03438175410468  -3.944018775276706  19.761226850832564  120.000000
0.8369999999999997  0.000000  0.000000  0.000000  -17.94875181274656  4.980763469967912  -5.804189862026344  54.66453790866532  14.710655855023695  -5.552496118851288  -8.70830461841689  51.979491597440216  -4.826715510528378  19.69464087830788  120.000000
0.8639999999999998  0.000000  0.000000  0.000000  -18.933937565581715  5.971411727613957  -4.411179668438947  55.33731547159862  14.827960169875118  -5.295987251480906  -9.42084188647348  52.81966177522941  -5.650470790257191  19.6516182641713  120.000000
0.8909999999999998  0.000000  0.000000  0.000000  -19.998683009420237  6.947408015958042  -2.9505464296612707  56.06082905247939  14.937214951142481  -4.99318316888973  -10.133887581279962  53.55386522817882  -6.394638461306735  19.63383254125323  120.000000
